<svg width="1280" height="85" viewBox="0 0 1280 85" fill="none" xmlns="http://www.w3.org/2000/svg">
<path d="M1224.74 47.14C1223.98 47.14 1223.25 47.0327 1222.54 46.818C1221.84 46.6033 1221.28 46.3187 1220.87 45.964L1221.5 44.55C1221.9 44.8673 1222.39 45.1287 1222.97 45.334C1223.56 45.53 1224.15 45.628 1224.74 45.628C1225.46 45.628 1226.01 45.5113 1226.36 45.278C1226.72 45.0447 1226.91 44.7367 1226.91 44.354C1226.91 44.074 1226.8 43.8453 1226.6 43.668C1226.4 43.4813 1226.15 43.3367 1225.84 43.234C1225.53 43.1313 1225.11 43.0147 1224.58 42.884C1223.84 42.7067 1223.23 42.5293 1222.76 42.352C1222.31 42.1747 1221.91 41.8993 1221.57 41.526C1221.25 41.1433 1221.08 40.63 1221.08 39.986C1221.08 39.4447 1221.23 38.9547 1221.52 38.516C1221.82 38.068 1222.26 37.7133 1222.85 37.452C1223.44 37.1907 1224.17 37.06 1225.03 37.06C1225.63 37.06 1226.22 37.1347 1226.79 37.284C1227.37 37.4333 1227.87 37.648 1228.29 37.928L1227.72 39.342C1227.29 39.09 1226.84 38.8987 1226.37 38.768C1225.91 38.6373 1225.46 38.572 1225.02 38.572C1224.3 38.572 1223.76 38.6933 1223.41 38.936C1223.06 39.1787 1222.89 39.5007 1222.89 39.902C1222.89 40.182 1222.99 40.4107 1223.18 40.588C1223.39 40.7653 1223.64 40.9053 1223.95 41.008C1224.26 41.1107 1224.68 41.2273 1225.21 41.358C1225.94 41.526 1226.54 41.7033 1227 41.89C1227.47 42.0673 1227.87 42.3427 1228.19 42.716C1228.53 43.0893 1228.7 43.5933 1228.7 44.228C1228.7 44.7693 1228.55 45.2593 1228.25 45.698C1227.96 46.1367 1227.52 46.4867 1226.92 46.748C1226.32 47.0093 1225.6 47.14 1224.74 47.14ZM1233.19 39.44C1234.29 39.44 1235.13 39.706 1235.71 40.238C1236.3 40.7607 1236.59 41.554 1236.59 42.618V47H1234.94V46.09C1234.73 46.4167 1234.42 46.6687 1234.02 46.846C1233.63 47.014 1233.15 47.098 1232.59 47.098C1232.03 47.098 1231.54 47.0047 1231.12 46.818C1230.7 46.622 1230.37 46.356 1230.14 46.02C1229.92 45.6747 1229.8 45.2873 1229.8 44.858C1229.8 44.186 1230.05 43.6493 1230.55 43.248C1231.05 42.8373 1231.84 42.632 1232.91 42.632H1234.84V42.52C1234.84 41.9973 1234.68 41.596 1234.37 41.316C1234.06 41.036 1233.6 40.896 1232.98 40.896C1232.56 40.896 1232.15 40.9613 1231.74 41.092C1231.33 41.2227 1230.99 41.4047 1230.71 41.638L1230.03 40.364C1230.42 40.0653 1230.89 39.8367 1231.44 39.678C1231.99 39.5193 1232.58 39.44 1233.19 39.44ZM1232.95 45.824C1233.39 45.824 1233.78 45.726 1234.12 45.53C1234.46 45.3247 1234.7 45.0353 1234.84 44.662V43.794H1233.04C1232.03 43.794 1231.53 44.1253 1231.53 44.788C1231.53 45.1053 1231.65 45.3573 1231.9 45.544C1232.16 45.7307 1232.51 45.824 1232.95 45.824ZM1238.84 39.524H1240.59V47H1238.84V39.524ZM1239.72 38.292C1239.4 38.292 1239.14 38.194 1238.92 37.998C1238.71 37.7927 1238.6 37.5407 1238.6 37.242C1238.6 36.9433 1238.71 36.696 1238.92 36.5C1239.14 36.2947 1239.4 36.192 1239.72 36.192C1240.04 36.192 1240.3 36.29 1240.52 36.486C1240.73 36.6727 1240.84 36.9107 1240.84 37.2C1240.84 37.508 1240.73 37.7693 1240.52 37.984C1240.31 38.1893 1240.05 38.292 1239.72 38.292ZM1244.55 40.616C1245.06 39.832 1245.94 39.44 1247.21 39.44V41.106C1247.06 41.078 1246.93 41.064 1246.81 41.064C1246.12 41.064 1245.59 41.2647 1245.21 41.666C1244.83 42.058 1244.64 42.6273 1244.64 43.374V47H1242.89V39.524H1244.55V40.616Z" fill="black"/>
<path fill-rule="evenodd" clip-rule="evenodd" d="M107.743 52.2321H112.508V36.1469H107.743V37.8375H107.696C107.124 36.8231 105.694 35.5672 103.073 35.5672C98.8326 35.5672 95.0681 38.9002 95.0681 44.1654C95.0681 48.7542 98.0225 52.7635 103.073 52.7635C104.932 52.7635 106.886 52.0389 107.696 50.4932H107.743V52.2321ZM107.743 44.1649C107.743 45.7106 106.743 48.2708 103.788 48.2708C100.929 48.2708 99.8332 45.7106 99.8332 44.2132C99.8332 42.3777 101.024 40.0591 103.741 40.0591C106.409 40.0591 107.743 42.2327 107.743 44.1649Z" fill="#212121"/>
<path d="M124.612 52.1838H119.847L114.414 36.0985H119.18L122.229 46.1458H122.277L125.469 36.0985H130.235L124.612 52.1838Z" fill="#212121"/>
<path fill-rule="evenodd" clip-rule="evenodd" d="M142.767 51.2657C144.101 50.3479 145.245 48.9471 146.007 47.1598V47.1115H141.147C140.479 47.9327 139.717 48.609 138.24 48.609C136.381 48.609 134.809 47.498 134.523 45.5658H146.436C146.439 45.5432 146.442 45.5207 146.445 45.4984C146.49 45.1873 146.531 44.8958 146.531 44.3099C146.531 39.3829 142.957 35.5186 138.145 35.5186C133.284 35.5186 129.806 39.6727 129.806 44.165C129.806 48.9954 133.713 52.7148 138.24 52.7148C139.86 52.7148 141.432 52.2318 142.767 51.2657ZM138.192 39.6241C140.67 39.6241 141.623 41.4113 141.814 42.3774H134.571C134.809 41.4113 135.714 39.6241 138.192 39.6241Z" fill="#212121"/>
<path d="M153.917 36.0982H158.349V37.7888H158.396C158.778 37.016 159.635 35.5186 162.351 35.5186V40.349C160.159 40.3973 158.635 40.8803 158.635 43.2955V52.1352H153.869V36.0982H153.917Z" fill="#212121"/>
<path d="M171.929 40.6392C171.882 40.301 171.834 39.4316 170.452 39.4316C169.452 39.4316 169.118 40.0595 169.118 40.4942C169.118 41.3637 170.309 41.8468 171.548 42.2332C174.217 43.0061 177.123 43.7789 177.123 47.2568C177.123 50.6381 174.169 52.7635 170.643 52.7635C168.26 52.7635 164.591 51.6525 164.162 47.4017H168.88C169.07 48.8992 170.5 48.8992 170.69 48.8992C171.5 48.8992 172.358 48.4161 172.358 47.6433C172.358 46.3873 171.167 46.2424 168.165 45.0831C166.116 44.4069 164.4 43.0544 164.4 40.8807C164.4 37.6926 167.26 35.5672 170.547 35.5672C172.644 35.5672 176.266 36.3884 176.647 40.6392H171.929Z" fill="#212121"/>
<path d="M91.3512 36.9676C90.4935 36.1947 88.8257 35.5667 87.3008 35.5667C84.4894 35.5667 83.87 37.0642 83.3934 37.837H83.3458V36.1464H78.9142V52.2316H83.6794V42.4259C83.6794 41.7014 83.9653 41.0734 84.4418 40.6387C84.4894 40.5904 84.5371 40.5421 84.5847 40.5421C84.6324 40.4938 84.68 40.4455 84.7277 40.4455H84.7753C85.1565 40.2039 85.5854 40.059 86.0619 40.059C86.6814 40.059 87.2055 40.3005 87.6344 40.687C88.1109 41.1217 88.4445 41.7497 88.4445 42.4742V43.1022C88.4445 43.1988 88.4445 43.3437 88.4445 43.4403V52.2316H93.2096V42.1361C93.2096 38.9963 92.2089 37.6921 91.3512 36.9676Z" fill="#212121"/>
<path d="M149.628 52.2315C148.294 52.2315 147.246 51.1688 147.246 49.8163C147.246 48.4638 148.294 47.4011 149.628 47.4011C150.963 47.4011 152.011 48.4638 152.011 49.8163C152.011 51.1205 150.963 52.2315 149.628 52.2315Z" fill="#212121"/>
<path d="M49.7903 51.9156L49.3645 61L57.0294 51.0166L57.8338 43.5409L64.1266 37.2481L69.0473 24L55.7992 28.8734L49.4591 35.1662L41.9834 35.9706L32 43.6355L41.0844 43.2097L49.7903 51.9156Z" fill="#212121"/>
<path d="M41.5101 46.2847L46.7147 51.5366L39.0024 54.3282L41.5101 46.2847Z" fill="#212121"/>
</svg>
